# xmcd
#
# Track frame offsets: 
#        150
#        15444
#        30684
#        42998
#        64142
#        93608
#        110396
#        121912
#        136228
#        157609
#        190753
#        205021
#        233185
#        246577
#        266964
#        306186
#
# Disc length: 4222 seconds
#
# Revision: 4
# Processed by: cddbd v1.5.2PL0 Copyright (c) Steve Scherf et al.
# Submitted via: ExactAudioCopy v0.95b4
#
DISCID=d7107c10
DTITLE=Various Artist - Global Lounge - World Nation
DYEAR=2000
DGENRE=New Age
TTITLE0=Tera - Origins
TTITLE1=Eastern Voices - The calling
TTITLE2=Tera - Ituxi
TTITLE3=Cyberland - Circle round the sun
TTITLE4=Cyber Ethnique - Desert wind
TTITLE5=Inishkea - Mahanadi
TTITLE6=Cyber Ethnique - Wild
TTITLE7=Tera - Ultima Lagrima
TTITLE8=Tera - Asiapical
TTITLE9=Inishkea - Namyit island
TTITLE10=Tera - Ecana
TTITLE11=Cyber Ethnique - Spiral mantra
TTITLE12=Tera - Lost in eden
TTITLE13=Tera - Ulaanbaatar
TTITLE14=Inishkea - Song of the Navajo
TTITLE15=Cyber Ethnique - World nation
EXTD=
EXTT0=
EXTT1=
EXTT2=
EXTT3=
EXTT4=
EXTT5=
EXTT6=
EXTT7=
EXTT8=
EXTT9=
EXTT10=
EXTT11=
EXTT12=
EXTT13=
EXTT14=
EXTT15=
PLAYORDER=
